<?xml version="1.0" standalone="no"?><!DOCTYPE svg PUBLIC "-//W3C//DTD SVG 1.1//EN" "http://www.w3.org/Graphics/SVG/1.1/DTD/svg11.dtd"><svg t="1628739458910" class="icon" viewBox="0 0 1024 1024" version="1.1" xmlns="http://www.w3.org/2000/svg" p-id="2417" xmlns:xlink="http://www.w3.org/1999/xlink" width="200" height="200"><defs><style type="text/css"></style></defs><path d="M616.80027646 592.54195903a5.66910021 5.66910021 0 0 0 0-11.33820043H333.81373052a5.66910021 5.66910021 0 1 0 0 11.33820043zM337.16766525 618.10383003h276.27867646a5.66910021 5.66910021 0 1 0 0-11.33820042H337.16766525a5.66910021 5.66910021 0 0 0 0 11.33820042zM615.7615072 638.00339019a5.66910021 5.66910021 0 0 0-5.66231088-5.66910022H522.0278575a5.66910021 5.66910021 0 1 0 0 11.33141106h88.07133882a5.66231087 5.66231087 0 0 0 5.66231088-5.66231084zM340.51481065 643.66570103h88.05776014a5.66910021 5.66910021 0 1 0 0-11.33141106h-88.05776014a5.66910021 5.66910021 0 1 0 1e-8 11.33141106zM558.84645683 657.89616098a5.66910021 5.66910021 0 0 0 0 11.33820042h47.9055941a5.66910021 5.66910021 0 0 0 0-11.33820042zM343.86874539 669.2343614h49.42640662a5.66910021 5.66910021 0 0 0 0-11.33820042h-49.42640662a5.66910021 5.66910021 0 1 0 0 11.33820042zM608.95179761 689.12713219a5.66910021 5.66910021 0 0 0-5.66910022-5.66231087h-25.6093964a5.66910021 5.66910021 0 0 0 0 11.33141109h25.6093964a5.66910021 5.66910021 0 0 0 5.66910022-5.66910022zM372.94070598 683.46482132h-25.7248152a5.66910021 5.66910021 0 1 0 0 11.33141109h25.72481521a5.66910021 5.66910021 0 1 0 0-11.33141109zM587.87768137 709.02669233a5.66910021 5.66910021 0 0 0 0 11.33820042h12.16650009a5.66910021 5.66910021 0 1 0 0-11.33820042zM350.79387378 709.02669233a5.66910021 5.66910021 0 0 0 0 11.33820042h11.95603051a5.66910021 5.66910021 0 1 0 0-11.33820042zM475.33755552 660.68658035a84.03846995 84.03846995 0 1 0 84.00452325 84.02489126A84.12673138 84.12673138 0 0 0 475.33755552 660.68658035z m0 145.3937497a61.3620691 61.3620691 0 1 1 61.36885846-61.35527975A61.42317318 61.42317318 0 0 1 475.33755552 806.06675138z" fill="#f4ea2a" p-id="2418"></path><path d="M692.08728511 480.51103379h-27.4085719a11.23636029 11.23636029 0 0 0-1.5343912-2.51205637l-112.36360297-138.28530908a11.32462175 11.32462175 0 0 0-17.25850627-0.39378181l-55.75407296 62.53662519L410.83881062 366.81671988a11.36535779 11.36535779 0 0 0-13.81631009 2.60710718L301.06873614 480.51103379h-32.58883953l-17.37392508-132.52115807a11.34498977 11.34498977 0 0 0-11.24314964-9.85812395H208.06154598a11.33820042 11.33820042 0 0 0 0 22.66961149h21.85489052l17.36034639 132.48042204a0.08826144 0.08826144 0 0 1 0 0.04073603l33.81771035 257.99497964a10.36732458 10.36732458 0 0 0 0.18331222 1.03876925 11.18204558 11.18204558 0 0 0 2.13185326 4.46738676l0.06789341 0.09505077c0.14936553 0.19010156 0.31230971 0.36662445 0.48204325 0.54993667 0.06110407 0.06789342 0.11541879 0.14257617 0.18331223 0.21046959s0.27157366 0.26478432 0.41414983 0.39378181 0.20368026 0.20368026 0.31230971 0.29873104 0.22404827 0.17652288 0.33267774 0.26478432 0.29873103 0.25120564 0.45488589 0.36662444l0.25120563 0.1629442c0.19010156 0.13578683 0.38699247 0.27157366 0.58388338 0.38699246l0.19689091 0.10862946c0.22404827 0.1289975 0.45488588 0.25799498 0.67893414 0.3734138l0.21725893 0.09505077c0.23083762 0.10862947 0.46846457 0.21046958 0.67893416 0.30552037l0.41414984 0.13578683c0.17652288 0.06110407 0.3598351 0.1289975 0.54314733 0.17652288a11.19562425 11.19562425 0 0 0 3.06199304 0.42772852h66.53554738a11.33820042 11.33820042 0 1 0 0-22.66961149h-56.53484724l-2.98052095-22.75787295L279.80451835 566.99366671h391.01175963L648.3299787 738.51280276h-56.54842592a11.33820042 11.33820042 0 1 0 0 22.66961151h66.53554738A11.33141108 11.33141108 0 0 0 669.51272438 751.32429031l33.81092103-257.99497963a11.32462175 11.32462175 0 0 0-11.24314963-12.81148753z m-150.49933455-116.16563423l94.37184779 116.16563424H438.03012362z m-133.28835369 26.72963776l53.90737206 28.23687157-51.97240971 58.30007607a11.46719791 11.46719791 0 0 0-1.8806476 2.89904883h-77.33060049zM278.31765253 555.64188761L271.44683886 503.17385596h407.7271186l-6.87760301 52.46803165z" fill="#f4ea2a" p-id="2419"></path><path d="M626.51582425 195.2568478c-83.46816526 0-156.9424197 50.24112759-187.18214706 128.04019263a11.33820042 11.33820042 0 0 0 21.1352203 8.22189264c26.82468854-69.0068677 92.00236761-113.58568445 166.04692676-113.58568445C724.71007136 217.93324862 804.62062162 297.82343086 804.62062162 396.01088863a178.1591121 178.1591121 0 0 1-77.79227571 147.17934654 11.33141108 11.33141108 0 1 0 12.78433018 18.71142535 200.7608302 200.7608302 0 0 0 87.657189-165.89077189c0-110.69342494-90.06061591-200.75404085-200.75404084-200.75404085z" fill="#f4ea2a" p-id="2420"></path><path d="M729.41508507 507.55298127a5.68267889 5.68267889 0 0 0 4.02607954 1.67017803 5.62157482 5.62157482 0 0 0 3.99213285-1.64302067 156.24311753 156.24311753 0 0 0 46.40514962-111.56925c0-86.74062787-70.57520561-157.30904416-157.32262283-157.30904416A156.33816831 156.33816831 0 0 0 501.81598765 300.11822833a5.66910021 5.66910021 0 0 0 8.98908824 6.91833905 145.04070394 145.04070394 0 0 1 115.73111639-57.03046918c80.49443364 0 145.97084374 65.48319943 145.97084372 145.97084373a144.98638921 144.98638921 0 0 1-43.0512149 103.52388024 5.66910021 5.66910021 0 0 0-0.04073603 8.05215911z" fill="#f4ea2a" p-id="2421"></path><path d="M689.75854096 334.99507596l6.94549643-16.57957211a14.20330256 14.20330256 0 0 0-26.20006913-10.98515466l-6.67392275 15.94137398-16.14505426-6.78934155 6.68071211-15.94137401a14.2100919 14.2100919 0 0 0-26.20685846-10.97836531L621.48492215 305.60401631l-9.34892336-3.91745008a14.19651322 14.19651322 0 0 0-18.58242786 7.60406254L581.18339059 338.87178998l20.31370998 25.00514501 12.77075149-30.47056496 51.6940467 21.65121027 6.70786947 2.8107874A19.92671751 19.92671751 0 0 1 657.29190957 394.61228427l-46.71066999-19.57367174 38.92329521 47.90559412c3.25888396 2.1725893 6.02893531 4.96300869 7.54974782 8.66998917 0.10862947 0.26478432 0.06110407 0.54993667 0.15615487 0.81472099L681.05460507 461.75887241c0.67893415-1.31713227 1.54118054-2.55279243 2.12506391-3.94460746a48.0006449 48.0006449 0 0 0 0.14936553-36.98154354c-0.05431474-0.1289975-0.13578683-0.23762695-0.19010159-0.3598351 11.44004055-4.69143502 21.27100714-13.31389882 26.4105387-25.58223904 9.3760807-22.37088047 0.43451786-47.74943925-19.79093067-59.89557131z" fill="#f4ea2a" p-id="2422"></path></svg>