<?xml version="1.0" standalone="no"?><!DOCTYPE svg PUBLIC "-//W3C//DTD SVG 1.1//EN" "http://www.w3.org/Graphics/SVG/1.1/DTD/svg11.dtd"><svg t="1628739976963" class="icon" viewBox="0 0 1024 1024" version="1.1" xmlns="http://www.w3.org/2000/svg" p-id="1442" xmlns:xlink="http://www.w3.org/1999/xlink" width="200" height="200"><defs><style type="text/css"></style></defs><path d="M513.44839287 441.02874946m-212.91375161 0a212.9137516 212.9137516 0 1 0 425.82750321 0 212.9137516 212.9137516 0 1 0-425.82750321 0Z" fill="#8CD5CA" p-id="1443"></path><path d="M513.44839287 228.11499786h-1.44839287v425.82750321h1.44839287c117.60950088 0 212.9137516-95.30425072 212.91375161-212.91375161S631.05789375 228.11499786 513.44839287 228.11499786z" fill="#71C6B8" p-id="1444"></path><path d="M329.50249863 430.88999939h366.44339561c15.93232155 0 28.96785737 13.03553581 28.96785736 28.96785736v296.92053795c0 15.93232155-13.03553581 28.96785737-28.96785736 28.96785735H329.50249863c-15.93232155 0-28.96785737-13.03553581-28.96785737-28.96785735V459.85785674c0-15.93232155 13.03553581-28.96785737 28.96785737-28.96785735z" fill="#F9F8F7" p-id="1445"></path><path d="M695.94589424 430.88999939H512v354.85625266h183.94589424c15.93232155 0 28.96785737-13.03553581 28.96785736-28.96785735V459.85785674c0-15.93232155-13.03553581-28.96785737-28.96785736-28.96785735z" fill="#EFEBE8" p-id="1446"></path><path d="M304.87981987 396.12857055h415.68875313c7.96616078 0 14.48392868 6.5177679 14.48392868 14.48392869v40.5550003c0 7.96616078-6.5177679 14.48392868-14.48392868 14.48392868H304.87981987c-7.96616078 0-14.48392868-6.5177679-14.48392869-14.48392868v-40.5550003c0-7.96616078 6.5177679-14.48392868 14.48392869-14.48392869z" fill="#F17954" p-id="1447"></path><path d="M720.568573 396.12857055H512v69.52285767h208.568573c7.96616078 0 14.48392868-6.5177679 14.48392868-14.48392868v-40.5550003c0-7.96616078-6.5177679-14.48392868-14.48392868-14.48392869z" fill="#D85735" p-id="1448"></path><path d="M300.53464126 682.91035842h424.37911034v30.41625024H300.53464126z" fill="#8CD5CA" p-id="1449"></path><path d="M512 682.91035842h212.9137516v30.41625024H512z" fill="#71C6B8" p-id="1450"></path><path d="M438.85616016 525.75973225m-13.75973225 0a13.75973225 13.75973225 0 1 0 27.5194645 0 13.75973225 13.75973225 0 1 0-27.5194645 0Z" fill="#313131" p-id="1451"></path><path d="M589.48901844 525.75973225m-13.75973225 0a13.75973225 13.75973225 0 1 0 27.51946449 0 13.75973225 13.75973225 0 1 0-27.51946449 0Z" fill="" p-id="1452"></path><path d="M375.85107041 607.59392929c3.18646431 6.08325005 39.10660744 37.65821457 146.28767967 37.65821456 20.27750015 0 28.67817878-18.82910728 28.96785736-37.65821456s-8.6903572-39.39628601-39.10660744-40.5550003-146.57735825 20.27750015-136.14892959 40.5550003z" fill="#F17954" p-id="1453"></path><path d="M522.13875008 645.25214386c20.27750015 0 28.67817878-18.82910728 28.96785736-37.65821457s-8.6903572-39.39628601-39.10660744-40.5550003v78.06837559c3.33130359 0.14483929 6.6626072 0.14483929 10.13875008 0.14483927z" fill="#D85735" p-id="1454"></path><path d="M642.35535812 636.56178665s44.17598247-10.86294651 52.14214325-21.72589302 14.48392868-37.65821457 17.38071442-49.24535752 31.57496453-59.52894687 42.00339317-14.48392867c2.1725893 9.41455364-8.6903572 36.20982171-11.58714294 44.90017891s6.5177679 6.5177679 13.03553581 0 31.86464309-22.88460732 47.79696465-49.24535752c5.06937504-8.40067864 37.65821457-12.31133938 21.72589302 24.62267876s-77.48901844 77.48901844-94.14553642 84.00678635-68.79866123 25.34687519-79.66160775 24.62267875l-8.69035721-43.45178604z" fill="#FFCC8F" p-id="1455"></path></svg>