<?xml version="1.0" standalone="no"?><!DOCTYPE svg PUBLIC "-//W3C//DTD SVG 1.1//EN" "http://www.w3.org/Graphics/SVG/1.1/DTD/svg11.dtd"><svg t="1629555469867" class="icon" viewBox="0 0 1024 1024" version="1.1" xmlns="http://www.w3.org/2000/svg" p-id="1688" xmlns:xlink="http://www.w3.org/1999/xlink" width="200" height="200"><defs><style type="text/css"></style></defs><path d="M738.27602448 452.20870872c-3.63998879 0-7.33964953-1.37245479-10.14423106-4.17703632l-152.16346583-152.16346582c-5.60916306-5.60916306-5.60916306-14.67929905 0-20.22879017 5.60916306-5.60916306 14.67929905-5.60916306 20.22879017 0l152.16346583 152.16346583c5.60916306 5.60916306 5.60916306 14.67929905 0 20.22879017-2.74490958 2.74490958-6.38489837 4.17703632-10.08455912 4.17703631zM356.8529368 505.07805409c-3.63998879 0-7.33964953-1.37245479-10.14423105-4.1770363l-87.71776266-87.71776266c-4.59473996-4.59473996-5.54949111-11.69570168-2.267534-17.36453669 55.67392691-95.41544387 174.06307052-134.20220967 275.38603718-90.16431249 7.27997758 3.16261321 10.56193469 11.57635778 7.39932147 18.85633537-3.16261321 7.27997758-11.57635778 10.56193469-18.85633537 7.39932147-84.61482138-36.75791959-183.01386263-7.0412898-233.43665816 68.98077118l79.66204976 79.66204976c5.60916306 5.60916306 5.60916306 14.67929905 0 20.22879016-2.68523764 2.86425348-6.32522642 4.29638021-10.02488717 4.2963802zM621.5576954 769.78281269c-3.69966073 0-7.39932148-1.43212673-10.14423106-4.17703631L523.33767 677.47031008c-5.60916306-5.60916306-5.60916306-14.67929905 0-20.22879015 5.60916306-5.60916306 14.67929905-5.60916306 20.22879017 0l80.07975338 80.0797534c76.55910849-50.72115528 106.09672245-149.53790015 68.56306755-234.51075322-3.22228515-7.22030564 0.05967195-15.69372217 7.33964953-18.91600734 7.22030564-3.22228515 15.69372217 0.05967195 18.91600731 7.33964954 44.93297637 101.68099835 6.38489837 220.60718948-89.62726496 276.57947613-2.32720596 1.31278283-4.77375579 1.96917427-7.27997758 1.96917425z" fill="#1037AC" p-id="1689"></path><path d="M463.42703483 720.19542442c-3.69966073 0-7.39932148-1.43212673-10.14423105-4.17703631L308.57833137 571.25424376c-4.05769242-4.05769242-5.31080332-10.14423106-3.16261321-15.45503438 1.31278283-3.22228515 32.75989912-80.31844118 108.00622476-160.51753845 44.21691302-47.14083844 94.46069271-85.50990061 149.29921236-114.03309147C631.34389477 245.62442688 707.24661184 225.33596477 788.40046029 221.09925651c4.05769242-0.17901585 7.99604095 1.31278283 10.91996637 4.17703632 2.86425348 2.86425348 4.35605216 6.86227394 4.17703629 10.91996637-4.59473996 80.79581677-25.00254596 156.519518-60.74604242 225.02291358-28.5828628 54.7788477-66.89225302 105.0226274-113.91374755 149.3588843-80.02008144 75.4253415-156.69853383 107.29016139-159.92081899 108.60294424-1.79015842 0.71606337-3.63998879 1.01442311-5.48981916 1.0144231zM335.78873938 557.94739948l130.80090867 130.80090868c21.83993274-10.38291884 82.22794349-41.94937901 143.33201759-99.77149603C707.54497158 496.66430952 762.56250705 382.9295778 773.72116122 250.8158863 641.0704222 261.37782099 527.15667464 316.27601258 435.08285982 414.07833435 377.32041475 475.42109625 345.99264238 536.10746673 335.78873938 557.94739948z" fill="#1037AC" p-id="1690"></path><path d="M540.94089449 555.26216186c-39.50282917 0-71.60633686-32.10350769-71.60633688-71.60633687s32.10350769-71.60633686 71.60633687-71.60633686 71.60633686 32.10350769 71.60633685 71.60633686-32.10350769 71.60633686-71.60633685 71.60633687z m0-114.57013899c-23.68976312 0-42.96380213 19.27403902-42.96380213 42.96380213s19.27403902 42.96380213 42.96380213 42.9638021 42.96380213-19.27403902 42.96380211-42.9638021-19.27403902-42.96380213-42.96380211-42.96380213zM235.42052388 803.49746296c-3.75933269 0-7.39932148-1.49179869-10.14423105-4.17703631-2.98359737-2.98359737-4.47539605-7.10096174-4.11736438-11.27799805 0.05967195-0.95475116 1.96917427-23.27205948 7.45899342-49.46804439 7.75735316-36.81759154 18.67731953-62.47652891 32.58088328-76.38009264 27.92647138-27.92647138 73.33682334-27.92647138 101.2632947 0s27.92647138 73.33682334 0 101.2632947c-13.90356374 13.90356374-39.56250113 24.82353011-76.38009265 32.58088327-26.19598492 5.48981917-48.51329323 7.39932148-49.46804438 7.45899342h-1.19343893z m46.00707144-121.07438123c-9.54751158 9.54751158-18.31928785 31.50678822-24.70418623 61.7007936-2.26753401 10.62160664-3.87867659 20.70616575-4.95277164 28.76187863 7.99604095-1.133767 18.08060005-2.74490958 28.76187866-4.95277163 30.25367733-6.38489837 52.15328202-15.15667464 61.70079358-24.70418621 16.76781722-16.76781722 16.76781722-44.03789716 0-60.74604245-16.82748916-16.82748916-44.03789716-16.82748916-60.80571437-0.05967194z" fill="#7A7EF5" p-id="1691"></path></svg>