<?xml version="1.0" standalone="no"?><!DOCTYPE svg PUBLIC "-//W3C//DTD SVG 1.1//EN" "http://www.w3.org/Graphics/SVG/1.1/DTD/svg11.dtd"><svg t="1628738890858" class="icon" viewBox="0 0 1024 1024" version="1.1" xmlns="http://www.w3.org/2000/svg" p-id="2277" xmlns:xlink="http://www.w3.org/1999/xlink" width="200" height="200"><defs><style type="text/css"></style></defs><path d="M661.17986823 243.47623678H362.82013177A119.343895 119.343895 0 0 0 243.47623678 362.82013177v298.35973645a119.343895 119.343895 0 0 0 119.343895 119.343895h298.35973645a119.343895 119.343895 0 0 0 119.34389499-119.34389499V362.82013177a119.343895 119.343895 0 0 0-119.34389499-119.34389499z m20.43764204 249.96578752A67.28012044 67.28012044 0 0 1 619.94655282 532.88518146h-216.01244976a7.30981367 7.30981367 0 0 0-7.25014162 8.02587688l49.91558447 82.37712377a30.34318524 30.34318524 0 1 1-51.88475838 31.44711579l-53.49590094-88.28464604-1.01442298-2.71507365a67.96634812 67.96634812 0 0 1 63.72963945-91.53676724h216.01244977a7.30981367 7.30981367 0 0 0 5.96719483-11.63602938l-51.64607062-54.80868373a30.34318524 30.34318524 0 0 1 44.18707733-41.56151178l53.28704872 56.68835009a67.30995648 67.30995648 0 0 1 9.87570718 72.56108813z" fill="#8C7BFD" p-id="2278"></path></svg>