<?xml version="1.0" standalone="no"?><!DOCTYPE svg PUBLIC "-//W3C//DTD SVG 1.1//EN" "http://www.w3.org/Graphics/SVG/1.1/DTD/svg11.dtd"><svg t="1628739464005" class="icon" viewBox="0 0 1024 1024" version="1.1" xmlns="http://www.w3.org/2000/svg" p-id="2561" xmlns:xlink="http://www.w3.org/1999/xlink" width="200" height="200"><defs><style type="text/css"></style></defs><path d="M241.55608367 573.18011474h55.61828615V790.09143067h-55.61828614zM398.67774201 503.65725708h55.61828613V790.09143067h-55.61828613zM555.79940034 546.06620026h55.61828613v243.33000182h-55.61828613zM712.92105866 422.31551361h55.61828612v367.08068848h-55.61828613z" fill="#437DFF" p-id="2562"></path><path d="M283.26979827 529.38071443l-27.11391448-31.98051454 164.76917267-136.26480102 25.72345734-0.69522858 132.78865814 101.5033722L730.99700165 254.76542663l33.37097168 24.33300019-164.07394409 225.25405883-29.19960023 4.17137147-136.96002959-104.97951508z" fill="#63F7DE" p-id="2563"></path><path d="M740.73020173 276.3175125m-41.71371462 1e-8a41.71371461 41.71371461 0 1 0 83.42742922 0 41.71371461 41.71371461 0 1 0-83.42742922 0Z" fill="#63F7DE" p-id="2564"></path></svg>