<?xml version="1.0" standalone="no"?><!DOCTYPE svg PUBLIC "-//W3C//DTD SVG 1.1//EN" "http://www.w3.org/Graphics/SVG/1.1/DTD/svg11.dtd"><svg t="1628739484389" class="icon" viewBox="0 0 1025 1024" version="1.1" xmlns="http://www.w3.org/2000/svg" p-id="2846" xmlns:xlink="http://www.w3.org/1999/xlink" width="200.1953125" height="200"><defs><style type="text/css"></style></defs><path d="M629.44565434 240.36271747c46.78291177 0 84.70772048 37.95848933 84.70772045 84.7414017 0 22.49890915-8.75706055 42.94327795-23.07148653 58.13340945l26.74271597 46.27769684c5.28791733-1.01042985 10.64319653-1.51564538 15.99847577-1.51564479 46.78291177 0 84.70772048 37.95848933 84.70772046 84.7414011s-37.9248087 84.7414017-84.70772045 84.74140171c-2.66079899 0-5.32159857-0.13472374-7.9150351-0.37049119l-29.10038626 50.35309812c10.87896398 14.24706411 17.34571615 32.06431397 17.34571617 51.3972098 0 46.816593-37.9248087 84.7414017-84.70772048 84.74140109-33.8157262 0-62.98347434-19.83811017-76.59059859-48.50064277H485.18992213c-13.57344359 28.66253261-42.77487298 48.50064337-76.59059856 48.50064277-46.78291177 0-84.70772048-37.95848933-84.70772047-84.7414011 0-21.35375555 7.88135445-40.82137453 20.88222126-55.74205855l-28.42676575-49.17426327c-7.67926823 2.29030839-15.83007078 3.53650508-24.25032198 3.5365051-46.78291177 0-84.70772048-37.95848933-84.70771988-84.74140171 0-46.816593 37.9248087-84.7414017 84.70771988-84.7414011 11.14841147 0 21.79160861 2.15558407 31.52541839 6.06258035l27.14688782-47.0186792a84.455113 84.455113 0 0 1-26.91112097-61.97304389c0-46.816593 37.9248087-84.7414017 84.70772044-84.7414011 40.04671152 0 73.59298964 27.78682647 82.41741209 65.13905778h55.97782599c8.89178432-37.31855065 42.43806301-65.10537715 82.48477395-65.10537714z m0 413.13117263c-25.05866562 0-45.36831008 20.34332509-45.3683095 45.40199073s20.30964446 45.40199073 45.3683095 45.40199133 45.36831008-20.30964446 45.36831008-45.40199133c0-25.05866562-20.30964446-45.40199073-45.36831008-45.40199073z m-220.81265014 0c-25.05866562 0-45.36831008 20.34332509-45.36830949 45.40199073s20.30964446 45.40199073 45.36830949 45.40199133 45.36831008-20.30964446 45.3683101-45.40199133c0-25.05866562-20.30964446-45.40199073-45.3683101-45.40199073z m85.81919344-64.70120531l-31.22228849 45.33462884a84.50563426 84.50563426 0 0 1 30.00977242 61.7035964h51.53193354c0.84202486-23.40829651 11.14841147-44.4252421 27.24793091-59.24488301l-27.9889127-45.9408869c-7.14037268 2.05454094-14.55019282 3.09865204-22.02737545 3.09865205-9.66644791-0.03368123-18.96240405-1.75141223-27.55106023-4.95110738z m157.3576421-54.73162809l-52.87917335 0.26944748a79.50063773 79.50063773 0 0 1-20.9495831 36.37548266l28.3930845 46.64818803c7.51086326-2.12190342 15.25749397-3.19969515 23.07148655-3.1660145 13.03454804 0 25.39547558 2.9639283 36.44284454 8.218165l22.12841857-38.29529989c-17.64884487-11.41785955-30.81811726-29.16774814-36.20707771-50.04996878z m-206.43086227 1.01042986l-71.60581055 0.33680995a84.49889847 84.49889847 0 0 1-23.37461527 38.86787668l26.57431042 46.00824875c9.76749041-3.94067751 20.44436819-6.09626158 31.59278027-6.09626157 6.56779527 0 12.96718557 0.74098177 19.13080901 2.15558405l34.3883036-49.91524504a80.65252771 80.65252771 0 0 1-16.70577748-31.35701282z m-153.21487837-67.69881427c-25.05866562 0-45.36831008 20.34332509-45.36831011 45.40199073s20.30964446 45.40199073 45.36831011 45.40199073 45.36831008-20.30964446 45.36830947-45.40199073-20.30964446-45.40199073-45.36830947-45.40199073z m441.62530024 0c-25.05866562 0-45.36831008 20.34332509-45.36831007 45.40199073s20.30964446 45.40199073 45.36831007 45.40199073 45.36831008-20.30964446 45.36830951-45.40199073-20.30964446-45.40199073-45.36830951-45.40199073zM385.0226221 406.51110138l-29.13406691 50.42045997a84.13514366 84.13514366 0 0 1 19.299214 39.10364352l69.61863147-0.33680993c3.30073826-13.74184859 10.13798161-26.06909549 19.50130021-36.00499151l-32.33376204-53.11494018c-7.40982074 2.12190342-15.25749397 3.26705703-23.37461526 3.26705703-8.18448377 0-16.09951886-1.14515419-23.57670147-3.3344189z m273.08556543-1.65036913c-8.95914678 3.23337638-18.6255941 4.98478861-28.69621382 4.98478802-3.80595319 0-7.54454452-0.23576685-11.21577396-0.74098178l-36.40916331 52.84549212a79.35244127 79.35244127 0 0 1 17.2783543 33.00738256l51.93610536-0.23576745c4.27748748-19.73706705 15.42589895-36.88069761 30.78443603-48.87113397l-23.6777446-40.9897795z m-111.07994526-60.05322726H491.01673563a84.72456109 84.72456109 0 0 1-24.7555363 42.37070115l31.32333157 51.46457107c7.71294947-2.49239401 15.93111388-3.83963441 24.45240762-3.8396344 9.63276668 0 18.82768029 1.717731 27.34897401 4.85006427l31.18860786-45.30094762c-16.50369129-11.68730764-28.69621383-29.20142876-33.54627812-49.54475449zM408.63300419 279.70212784c-25.05866562 0-45.36831008 20.30964446-45.3683095 45.40199133 0 25.05866562 20.30964446 45.40199073 45.3683095 45.40199073s45.36831008-20.34332509 45.36831011-45.40199073-20.30964446-45.40199073-45.36831011-45.40199133z m220.81265015 0c-25.05866562 0-45.36831008 20.30964446-45.3683095 45.40199133 0 25.05866562 20.30964446 45.40199073 45.3683095 45.40199073s45.36831008-20.34332509 45.36831009-45.40199073-20.30964446-45.40199073-45.36831009-45.40199133z" fill="#479fea" p-id="2847"></path></svg>