<?xml version="1.0" standalone="no"?><!DOCTYPE svg PUBLIC "-//W3C//DTD SVG 1.1//EN" "http://www.w3.org/Graphics/SVG/1.1/DTD/svg11.dtd"><svg t="1628739601571" class="icon" viewBox="0 0 1024 1024" version="1.1" xmlns="http://www.w3.org/2000/svg" p-id="2986" xmlns:xlink="http://www.w3.org/1999/xlink" width="200" height="200"><defs><style type="text/css"></style></defs><path d="M708.02234715 704.11444675L601.68693691 585.54628729l-90.10464055 103.65017261-103.6501726-103.65017262-100.06985576 119.94061425c-12.53110895 18.14027201 0.53704752 42.84445822 22.61566806 42.72511433l354.86907109-1.96917427c21.60124496-0.05967195 34.49038558-24.04779479 22.67533999-42.12839485z" fill="#FFB89A" p-id="2987"></path><path d="M649.00679119 614.06947815l-31.20842848-28.46351892c-7.27997758-6.68325811-18.61764758-6.14621059-25.30090569 1.13376701s-6.14621059 18.61764758 1.133767 25.30090568l31.20842848 28.46351891c3.46097294 3.16261321 7.75735316 4.65441189 12.05373338 4.65441191 4.83342774 0 9.66685548-1.96917427 13.24717231-5.84785085 6.68325811-7.22030564 6.14621059-18.55797563-1.133767-25.24123375zM583.12896129 553.92015518c-7.39932148-6.56391422-18.73699148-5.84785084-25.24123376 1.55147063l-58.955884 66.65356522-102.03903004-98.87641682L258.93127115 660.25556542c-7.0412898 6.98161785-7.0412898 18.31928785-0.05967195 25.30090569 3.52064489 3.52064489 8.11538484 5.31080332 12.7101248 5.31080331 4.535068 0 9.12980796-1.73048647 12.59078089-5.19145942l113.01866835-112.24293302 103.70984455 100.54723133L584.68043192 579.28073281c6.56391422-7.45899343 5.84785084-18.79666343-1.55147063-25.36057764z" fill="#33CC99" p-id="2988"></path><path d="M636.89338588 432.36839835m-20.94485354 0a20.94485352 20.94485352 0 1 0 41.88970706 0 20.94485352 20.94485352 0 1 0-41.88970706 0Z" fill="#33CC99" p-id="2989"></path><path d="M649.96154234 332.29854259H320.81108058c-42.12839484 0-76.55910849 34.43071365-76.55910849 76.5591085v297.88236134c0 42.12839484 34.43071365 76.55910849 76.55910849 76.55910849h329.09078983c42.12839484 0 76.55910849-34.43071365 76.55910849-76.55910849V408.91732303c0.05967195-42.12839484-34.43071365-76.61878044-76.49943656-76.61878043z m40.75594007 374.50114179c0 10.80062247-4.23670827 21.00452548-11.99406142 28.76187863-7.75735316 7.75735316-17.96125617 11.99406142-28.76187865 11.99406143H320.81108058c-10.80062247 0-21.00452548-4.23670827-28.76187864-11.99406143-7.75735316-7.75735316-11.99406142-17.96125617-11.99406143-28.76187863V408.91732303c0-10.80062247 4.23670827-21.00452548 11.99406143-28.76187863 7.75735316-7.75735316 17.96125617-11.99406142 28.76187864-11.99406143h329.09078983c10.80062247 0 21.00452548 4.23670827 28.76187863 11.99406143 7.75735316 7.75735316 11.99406142 17.96125617 11.99406143 28.76187864v297.88236134z" fill="#45484C" p-id="2990"></path><path d="M683.67619262 282.0547629H348.02148858c-9.90554327 0-17.90158422 7.99604095-17.9015842 17.90158422s7.99604095 17.90158422 17.90158421 17.9015842h335.59503209c15.57437828 0 30.31334928 6.14621059 41.41233148 17.2451928 11.09898221 11.09898221 17.2451928 25.83795322 17.24519279 41.41233149v287.85747418c0 9.90554327 7.99604095 17.90158422 17.90158421 17.90158421s17.90158422-7.99604095 17.90158422-17.90158421V376.51545561C778.13688533 324.42184553 735.76980269 282.0547629 683.67619262 282.0547629z" fill="#45484C" p-id="2991"></path></svg>